<?xml version="1.0" standalone="no"?>
<!DOCTYPE svg PUBLIC "-//W3C//DTD SVG 20010904//EN"
 "http://www.w3.org/TR/2001/REC-SVG-20010904/DTD/svg10.dtd">
<svg version="1.0" xmlns="http://www.w3.org/2000/svg"
 width="16.000000pt" height="16.000000pt" viewBox="0 0 16.000000 16.000000"
 preserveAspectRatio="xMidYMid meet">
<metadata>
Created by potrace 1.11, written by Peter Selinger 2001-2013
</metadata>
<g transform="translate(0.000000,16.000000) scale(0.003125,-0.003125)"
fill="#000000" stroke="none">
<path d="M2540 4875 c-156 -32 -271 -163 -274 -312 0 -35 -2 -63 -3 -63 -2 0
-25 47 -53 105 -84 177 -178 247 -335 248 -95 1 -146 -18 -218 -83 -58 -52
-96 -114 -112 -184 -22 -94 -10 -166 46 -278 21 -41 25 -56 14 -52 -8 4 -15
10 -15 15 0 15 -83 62 -145 82 -245 78 -485 -156 -419 -408 10 -39 123 -292
152 -340 3 -5 -16 9 -44 32 -59 51 -120 74 -194 75 -119 1 -229 -65 -282 -170
-26 -53 -31 -74 -31 -135 0 -90 6 -109 108 -320 153 -318 198 -412 235 -492
21 -44 77 -161 125 -260 48 -99 104 -216 125 -260 21 -44 70 -147 110 -230 39
-82 83 -179 96 -215 13 -36 28 -74 33 -85 5 -11 39 -90 76 -177 142 -333 330
-630 517 -819 166 -168 364 -269 583 -298 69 -8 341 -8 380 2 11 2 43 8 70 11
143 20 317 77 490 161 241 116 455 284 606 475 39 49 129 177 129 184 0 2 16
32 35 65 77 138 142 341 170 531 7 54 14 186 14 305 0 116 3 230 6 255 11 80
36 214 51 266 8 28 16 60 18 70 8 43 151 456 175 509 18 38 130 341 136 365 2
8 12 51 24 95 27 105 24 232 -6 290 -26 51 -67 91 -118 118 -55 29 -181 30
-245 2 -191 -83 -341 -289 -444 -610 -24 -77 -61 -192 -81 -255 -48 -149 -95
-238 -157 -296 l-51 -47 -18 24 c-10 13 -19 27 -19 30 0 4 -34 78 -76 165
-130 273 -175 365 -242 504 -35 74 -90 189 -122 255 -149 311 -250 522 -388
810 -42 88 -89 179 -104 201 -71 107 -206 164 -328 139z"/>
<path d="M3810 4818 c220 -288 329 -481 355 -630 4 -18 11 -53 16 -78 6 -25
12 -115 14 -200 1 -85 7 -157 11 -159 21 -9 95 176 111 277 17 111 7 239 -27
336 -58 171 -143 283 -295 391 -75 54 -189 115 -214 115 -7 0 6 -24 29 -52z"/>
<path d="M3137 4783 c120 -102 298 -291 375 -398 96 -135 177 -301 223 -460
24 -83 29 -111 41 -220 3 -33 8 -69 10 -80 4 -18 14 -151 18 -227 1 -15 4 -29
7 -32 6 -7 57 133 65 179 2 17 6 35 9 42 23 67 24 297 1 398 -22 102 -45 166
-91 260 -58 120 -106 189 -193 279 -80 83 -175 152 -322 233 -45 25 -185 83
-200 83 -6 0 19 -26 57 -57z"/>
<path d="M466 2618 c-77 -287 -56 -540 65 -782 109 -218 293 -403 506 -509 56
-28 222 -87 243 -87 15 0 -46 60 -160 155 -253 213 -418 434 -515 690 -29 77
-80 281 -90 360 -3 28 -8 57 -10 65 -2 8 -6 49 -10 90 -3 41 -7 76 -9 77 -2 2
-11 -25 -20 -59z"/>
<path d="M163 1529 c15 -138 91 -282 212 -405 147 -148 336 -225 565 -228 110
-1 184 7 257 29 86 26 78 32 -67 51 -52 6 -239 61 -324 95 -233 92 -411 224
-587 434 -62 73 -61 73 -56 24z"/>
</g>
</svg>
