<svg width="700" height="211" viewBox="0 0 700 211" version="1.1" xmlns="http://www.w3.org/2000/svg" xmlns:xlink="http://www.w3.org/1999/xlink">
<title>Blunt</title>
<desc>Created using Figma</desc>
<g id="Canvas" transform="translate(-18366 -2213)">
<g id="Blunt">
<use xlink:href="#path0_fill" transform="translate(18354 2148)" fill="#FFFFFF"/>
</g>
</g>
<defs>
<path id="path0_fill" d="M 12.384 65.08L 118.944 65.08C 129.12 65.08 137.952 66.232 145.44 68.536C 152.928 70.84 159.456 74.104 165.024 78.328C 171.168 83.128 175.968 88.984 179.424 95.896C 182.88 102.616 184.608 110.296 184.608 118.936C 184.608 128.728 182.496 136.792 178.272 143.128C 174.048 149.464 167.616 154.552 158.976 158.392L 158.976 159.256C 170.304 162.904 179.04 169.144 185.184 177.976C 191.328 186.808 194.4 197.08 194.4 208.792C 194.4 219.928 192.288 229.624 188.064 237.88C 183.84 246.136 178.08 252.856 170.784 258.04C 164.64 262.456 157.44 265.72 149.184 267.832C 141.12 269.944 131.712 271 120.96 271L 12.384 271L 12.384 65.08ZM 114.336 223.768C 120.864 223.768 126.144 221.944 130.176 218.296C 134.208 214.648 136.224 209.752 136.224 203.608C 136.224 196.888 134.016 191.896 129.6 188.632C 125.376 185.368 120.192 183.736 114.048 183.736L 71.424 183.736L 71.424 223.768L 114.336 223.768ZM 108.864 145.144C 114.624 145.144 119.232 143.8 122.688 141.112C 126.336 138.424 128.16 134.296 128.16 128.728C 128.16 123.352 126.336 119.224 122.688 116.344C 119.04 113.272 114.336 111.736 108.576 111.736L 71.424 111.736L 71.424 145.144L 108.864 145.144ZM 206.948 65.08L 262.82 65.08L 262.82 271L 206.948 271L 206.948 65.08ZM 380.243 271L 380.243 251.992L 379.379 251.992C 373.811 259.672 367.283 265.528 359.795 269.56C 352.499 273.592 343.763 275.608 333.587 275.608C 324.755 275.608 317.075 274.168 310.547 271.288C 304.019 268.6 298.547 264.76 294.131 259.768C 289.907 254.776 286.643 248.824 284.339 241.912C 282.227 235 281.171 227.32 281.171 218.872L 281.171 124.12L 335.603 124.12L 335.603 205.912C 335.603 221.464 342.131 229.24 355.187 229.24C 362.291 229.24 367.763 226.936 371.603 222.328C 375.635 217.72 377.651 211.384 377.651 203.32L 377.651 124.12L 432.083 124.12L 432.083 271L 380.243 271ZM 503.476 144.28L 504.34 144.28C 510.292 136.216 517.012 130.072 524.5 125.848C 532.18 121.624 541.204 119.512 551.572 119.512C 568.66 119.512 581.524 124.696 590.164 135.064C 598.804 145.432 603.124 159.064 603.124 175.96L 603.124 271L 548.692 271L 548.692 189.208C 548.692 181.528 547.06 175.384 543.796 170.776C 540.532 166.168 535.348 163.864 528.244 163.864C 521.332 163.864 515.86 166.552 511.828 171.928C 507.988 177.112 506.068 183.736 506.068 191.8L 506.068 271L 451.636 271L 451.636 124.12L 503.476 124.12L 503.476 144.28ZM 610.922 124.12L 629.93 124.12L 629.93 76.6L 683.21 76.6L 683.21 124.12L 711.146 124.12L 711.146 156.952L 683.21 156.952L 683.21 216.568C 683.21 220.216 683.786 223.096 684.938 225.208C 686.282 227.128 688.106 228.568 690.41 229.528C 692.906 230.296 695.786 230.776 699.05 230.968C 702.506 230.968 706.346 230.776 710.57 230.392L 710.57 270.424C 706.346 271.384 702.026 272.152 697.61 272.728C 693.386 273.496 688.778 273.88 683.786 273.88C 674.762 273.88 666.89 273.112 660.17 271.576C 653.45 270.232 647.882 267.832 643.466 264.376C 639.05 260.92 635.69 256.312 633.386 250.552C 631.082 244.792 629.93 237.496 629.93 228.664L 629.93 156.952L 610.922 156.952L 610.922 124.12Z"/>
</defs>
</svg>
